<?xml version="1.0" encoding="UTF-8" standalone="no"?>
<!-- Created with Inkscape (http://www.inkscape.org/) -->

<svg
   width="1474.262mm"
   height="628.22284mm"
   viewBox="0 0 1474.262 628.22284"
   version="1.1"
   id="svg1"
   sodipodi:docname="caja_segureye.svg"
   inkscape:version="1.3 (0e150ed6c4, 2023-07-21)"
   xmlns:inkscape="http://www.inkscape.org/namespaces/inkscape"
   xmlns:sodipodi="http://sodipodi.sourceforge.net/DTD/sodipodi-0.dtd"
   xmlns="http://www.w3.org/2000/svg"
   xmlns:svg="http://www.w3.org/2000/svg">
  <sodipodi:namedview
     id="namedview1"
     pagecolor="#ffffff"
     bordercolor="#000000"
     borderopacity="0.25"
     inkscape:showpageshadow="2"
     inkscape:pageopacity="0.0"
     inkscape:pagecheckerboard="0"
     inkscape:deskcolor="#d1d1d1"
     inkscape:document-units="mm"
     inkscape:zoom="0.5"
     inkscape:cx="2682"
     inkscape:cy="571"
     inkscape:window-width="1366"
     inkscape:window-height="705"
     inkscape:window-x="-8"
     inkscape:window-y="-8"
     inkscape:window-maximized="1"
     inkscape:current-layer="layer1" />
  <defs
     id="defs1" />
  <g
     inkscape:label="Capa 1"
     inkscape:groupmode="layer"
     id="layer1"
     transform="translate(570.70624,185.73751)">
    <path
       d="m -530.25445,2.6320234 h 20.72587 252.20257 20.72592 c 0.95087,0 3.4548,0.09054 4.37097,0.2621569 V 56.708153 h 2.48935 V 4.2407723 c 5.08289,2.4791386 8.84607,7.5628227 9.29164,13.3973987 l 5.96665,78.140307 c 0.63026,8.253502 -5.6069,15.005982 -13.86026,15.005982 h -37.24267 -235.6858 -37.24259 c -8.25337,0 -14.49057,-6.75248 -13.8603,-15.005982 l 5.96674,-78.140307 c 0.44546,-5.834576 4.20852,-10.918411 9.29141,-13.3973987 V 56.708153 l 2.50112,0 V 2.8941803 c 0.91636,-0.1714486 3.40847,-0.2621569 4.35938,-0.2621569 z M -520.2401,104.22296 h 67.59522 v 2.50563 h -67.59522 z m 206.03046,0.01 h 67.59503 v 2.4961 h -67.59503 z m -103.01523,0 h 67.5952 v 2.4961 h -67.5952 z"
       style="fill:none;fill-rule:evenodd;stroke:#000000;stroke-width:0.1;stroke-linecap:butt;stroke-linejoin:miter;stroke-dasharray:none;stroke-opacity:1"
       id="path1"
       sodipodi:nodetypes="sccsccccccsccsccccccsccccccccccccccc" />
    <path
       d="m -165.53202,2.6320234 h 12.1029 H 8.4805565 22.575204 c 8.253512,0 15.356691,6.7527668 15.785243,15.0061476 l 4.057896,78.140307 C 42.8243,103.60072 37.094666,110.07379 29.468874,110.72893 V 56.708153 H 26.959559 V 110.78446 H 2.8643265 -147.8129 -171.89853 V 56.708153 h -2.51887 v 54.020777 c -7.62613,-0.65514 -13.35576,-7.12821 -12.94952,-14.950452 l 4.05762,-78.140307 c 0.0849,-1.637423 0.43398,-3.215508 1.00126,-4.69397 v -0.0057 l 3.68685,-17.9112608 c 0.23771,-1.1536685 0.96377,-2.141662 2.14188,-2.141662 h 8.53373 c 1.17806,0 2.09975,0.964868 2.14166,2.141662 z m -6.85756,-5.081267 c 1.49333,0 2.70395,1.2106164 2.70395,2.7039365 0,1.4932155 -1.21062,2.7038324 -2.70395,2.7038324 -1.49313,0 -2.70379,-1.2106169 -2.70379,-2.7038324 0,-1.4933201 1.21066,-2.7039365 2.70379,-2.7039365 z m 66.11755,106.6519136 h 67.595207 v 2.52592 h -67.595207 z"
       style="fill:none;fill-rule:evenodd;stroke:#000000;stroke-width:0.1;stroke-linecap:butt;stroke-linejoin:miter;stroke-dasharray:none;stroke-opacity:1"
       id="path2"
       sodipodi:nodetypes="cccscccccccccccccccccssccsssssccccc" />
    <path
       d="m -533.0594,162.66567 h 12.8193 v -2.4987 h 67.59522 v 2.4987 h 35.42001 v -2.4987 h 67.5952 v 2.4987 h 35.42003 v -2.4987 h 67.59503 v 2.4987 h 12.81928 v 64.08956 h 2.50331 v 67.59533 h -2.50331 v 64.08969 h -12.81928 v 2.51239 h -67.59503 v -2.51239 h -35.42003 l -0.002,2.5007 h -67.5952 l 0.002,-2.5007 h -35.42001 v 2.5007 h -67.59522 v -2.5007 h -12.8193 v -64.08969 h -2.50038 v -67.59533 h 2.50038 z"
       style="fill:none;fill-rule:evenodd;stroke:#000000;stroke-width:0.1;stroke-linecap:butt;stroke-linejoin:miter;stroke-dasharray:none;stroke-opacity:1"
       id="path3"
       sodipodi:nodetypes="ccccccccccccccccccccccccccccccccccccc" />
    <path
       d="m 372.31274,-81.693777 v 110.813786 9.280839 c 0,6.20304 -5.21266,11.277961 -11.58394,11.277961 h -98.704 v 1.192529 c 0,2.491977 -2.03865,4.530769 -4.5306,4.530769 h -77.73841 c -2.49197,0 -4.53061,-2.038792 -4.53061,-4.530769 V 49.678809 H 76.521181 c -6.371094,0 -11.583885,-5.074921 -11.583885,-11.277961 V 29.120009 -81.693777 -140.24312 h 4.055827 v -9.90823 h -4.055827 v -4.05585 H 372.31274 v 4.05585 h -4.05583 v 9.90823 h 4.05583 z"
       style="fill:none;fill-rule:evenodd;stroke:#000000;stroke-width:0.1;stroke-linecap:butt;stroke-linejoin:miter;stroke-dasharray:none;stroke-opacity:1"
       id="path6"
       sodipodi:nodetypes="ccsscsssscssccccccccccccc" />
    <rect
       style="fill:none;fill-rule:evenodd;stroke:#000000;stroke-width:0.0997584;stroke-dasharray:none;stroke-opacity:1;paint-order:stroke markers fill"
       id="rect1"
       width="42.900242"
       height="27.900242"
       x="-160.95674"
       y="149.96533"
       ry="2.1379495" />
    <rect
       style="fill:none;fill-rule:evenodd;stroke:#000000;stroke-width:0.106945;stroke-dasharray:none;stroke-opacity:1;paint-order:stroke markers fill"
       id="rect2"
       width="56.893059"
       height="42.893055"
       x="-167.95316"
       y="142.46893"
       ry="5.1007895" />
    <rect
       style="fill:none;fill-rule:evenodd;stroke:#000000;stroke-width:0.106945;stroke-dasharray:none;stroke-opacity:1;paint-order:stroke markers fill"
       id="rect3"
       width="56.893059"
       height="42.893055"
       x="-106.88914"
       y="141.43744"
       ry="5.1007895" />
    <path
       d="m -530.25445,-138.05866 h 20.72587 252.20257 20.72592 c 0.95087,0 3.4548,0.0905 4.37097,0.26216 v 53.813975 h 2.48935 v -52.467385 c 5.08289,2.47914 8.84607,7.56283 9.29164,13.3974 l 5.96665,78.14031 c 0.63026,8.253502 -5.6069,15.005982 -13.86026,15.005982 h -37.24267 -235.6858 -37.24259 c -8.25337,0 -14.49057,-6.75248 -13.8603,-15.005982 l 5.96674,-78.14031 c 0.44546,-5.83457 4.20852,-10.91841 9.29141,-13.3974 v 52.467385 h 2.50112 V -137.7965 c 0.91636,-0.17145 3.40847,-0.26216 4.35938,-0.26216 z m 10.01435,101.590942 h 67.59522 v 2.50563 h -67.59522 z m 206.03046,0.01 h 67.59503 v 2.4961 h -67.59503 z m -103.01523,0 h 67.5952 v 2.4961 h -67.5952 z"
       style="fill:none;fill-rule:evenodd;stroke:#000000;stroke-width:0.1;stroke-linecap:butt;stroke-linejoin:miter;stroke-dasharray:none;stroke-opacity:1"
       id="path4"
       sodipodi:nodetypes="sccsccccccsccsccccccsccccccccccccccc" />
    <rect
       style="fill:none;fill-rule:evenodd;stroke:#000000;stroke-width:0.0995982;stroke-dasharray:none;stroke-opacity:1;paint-order:stroke markers fill"
       id="rect5"
       width="4.0904427"
       height="2.5004017"
       x="-174.42329"
       y="-1.0258567" />
    <path
       d="M 20.583416,-130.71798 H 8.4805155 -153.42916 -167.52381 c -8.25351,0 -15.35669,6.75277 -15.78524,15.00615 l -4.0579,78.140309 c -0.40595,7.822242 5.32368,14.295312 12.94947,14.950452 v -54.020777 h 2.50932 v 54.076307 H -147.81293 2.8642955 26.949926 v -54.076307 h 2.51887 v 54.020777 c 7.62613,-0.65514 13.35576,-7.12821 12.94952,-14.950452 l -4.05762,-78.140309 c -0.0849,-1.63742 -0.43398,-3.21551 -1.00126,-4.69397 v -0.006 l -3.68685,-17.91126 c -0.23771,-1.15367 -0.96377,-2.14166 -2.14188,-2.14166 h -8.53373 c -1.17806,0 -2.09975,0.96487 -2.14166,2.14166 z m 6.85756,-5.08126 c -1.49333,0 -2.70395,1.21061 -2.70395,2.70393 0,1.49322 1.21062,2.70384 2.70395,2.70384 1.49313,0 2.70379,-1.21062 2.70379,-2.70384 0,-1.49332 -1.21066,-2.70393 -2.70379,-2.70393 z m -66.11755,106.651911 h -67.595206 v 2.52592 h 67.595206 z"
       style="fill:none;fill-rule:evenodd;stroke:#000000;stroke-width:0.1;stroke-linecap:butt;stroke-linejoin:miter;stroke-dasharray:none;stroke-opacity:1"
       id="path5"
       sodipodi:nodetypes="cccscccccccccccccccccssccsssssccccc" />
    <rect
       style="fill:none;fill-rule:evenodd;stroke:#000000;stroke-width:0.0995982;stroke-dasharray:none;stroke-opacity:1;paint-order:stroke markers fill"
       id="rect6"
       width="4.0904427"
       height="2.5004017"
       x="-29.474689"
       y="-134.37585"
       transform="scale(-1,1)" />
    <rect
       style="fill:none;fill-rule:evenodd;stroke:#000000;stroke-width:0.100305;stroke-dasharray:none;stroke-opacity:1;paint-order:stroke markers fill"
       id="rect4"
       width="67.585045"
       height="2.4996951"
       x="-267.95209"
       y="-558.34607"
       ry="0"
       transform="rotate(-90)" />
    <ellipse
       style="fill:none;fill-rule:evenodd;stroke:#000000;stroke-width:0.100025;stroke-dasharray:none;paint-order:stroke markers fill"
       id="path7"
       cx="-500.62881"
       cy="79.073219"
       rx="17.949989"
       ry="17.949987" />
    <rect
       style="fill:none;fill-rule:evenodd;stroke:#000000;stroke-width:0.0756677;paint-order:stroke markers fill"
       id="rect8"
       width="11.924333"
       height="11.924333"
       x="-452.71426"
       y="85.183655" />
    <circle
       style="fill:none;fill-rule:evenodd;stroke:#000000;stroke-width:0.0903717;stroke-dasharray:none;paint-order:stroke markers fill"
       id="path9"
       cx="-383.42728"
       cy="85.073219"
       r="11.954814" />
    <circle
       style="fill:none;fill-rule:evenodd;stroke:#000000;stroke-width:0.0999952;stroke-dasharray:none;paint-order:stroke markers fill"
       id="circle9"
       cx="-257.32953"
       cy="91.573219"
       r="5.4500022" />
    <rect
       style="fill:none;fill-rule:evenodd;stroke:#000000;stroke-width:0.0999887;stroke-dasharray:none;paint-order:stroke markers fill"
       id="rect10"
       width="6.9000115"
       height="6.9000115"
       x="-313.17764"
       y="90.172112" />
    <rect
       style="fill:none;fill-rule:evenodd;stroke:#000000;stroke-width:0.0999887;stroke-dasharray:none;paint-order:stroke markers fill"
       id="rect11"
       width="6.9000115"
       height="6.9000115"
       x="-325.64566"
       y="90.172112" />
    <rect
       style="fill:none;fill-rule:evenodd;stroke:#000000;stroke-width:0.0996749;stroke-dasharray:none;paint-order:stroke markers fill"
       id="rect12"
       width="14.900325"
       height="14.900325"
       x="230.17485"
       y="-44.352711" />
    <rect
       style="fill:none;fill-rule:evenodd;stroke:#f4ae1d;stroke-width:0.0996941;stroke-dasharray:none;paint-order:stroke markers fill;stroke-opacity:1"
       id="rect13"
       width="22.900307"
       height="9.9003057"
       x="207.17487"
       y="-54.352699" />
    <g
       id="g2"
       transform="matrix(0.40860649,0,0,0.40860649,-389.61321,-126.74228)">
      <path
         style="fill:none;stroke:#000000;stroke-width:0.1;stroke-dasharray:none;stroke-opacity:1"
         d="m -180.45797,201.94257 c 0,-1.38822 -1.64524,-12.23154 -2.50413,-16.50399 -0.82922,-4.12489 -2.15529,-9.00413 -3.16394,-11.64166 l -0.40473,-1.05833 0.11492,0.92604 c 0.0632,0.50932 0.17711,2.29526 0.25313,3.96875 l 0.13821,3.0427 -0.47906,-1.5875 c -0.7201,-2.38626 -2.54283,-6.88358 -3.72875,-9.20015 -3.54802,-6.9307 -9.253,-11.22702 -15.89023,-11.96666 -1.92528,-0.21455 -1.93507,-0.18611 -0.26458,0.76855 1.07194,0.61261 1.12101,0.68075 0.49225,0.68362 -0.97666,0.004 -5.00442,-0.77957 -5.57579,-1.08536 -0.31534,-0.16876 -0.47271,-0.15986 -0.47271,0.0267 0,0.34528 2.33923,1.85557 2.87402,1.85557 0.21404,0 0.31904,0.0701 0.23332,0.15585 -0.29746,0.29746 -3.82438,-0.41563 -5.31394,-1.07439 -0.82367,-0.36426 -1.49757,-0.567 -1.49757,-0.45054 0,0.30467 1.30066,1.48324 2.38125,2.15773 l 0.92604,0.57802 -1.31252,-0.17874 c -1.64877,-0.22454 -3.78229,-1.01468 -5.03473,-1.86461 l -0.963,-0.65351 0.48013,0.82326 c 0.26407,0.45279 0.87122,1.1688 1.34922,1.59113 1.03051,0.91049 0.90824,0.94033 -0.95349,0.23273 -1.61787,-0.61492 -2.37427,-1.05789 -3.96245,-2.32053 l -1.13642,-0.90349 0.18178,0.75511 c 0.1,0.41531 0.40557,1.20187 0.6791,1.74792 l 0.49733,0.99283 -1.65935,-0.9186 c -0.91264,-0.50522 -2.21971,-1.40062 -2.90461,-1.98977 l -1.24526,-1.07118 0.40069,0.95899 0.4007,0.959 -1.53668,-0.86625 c -2.75017,-1.55031 -5.45976,-3.52307 -7.05811,-5.13878 -1.76878,-1.78798 -3.52924,-4.04062 -3.62208,-4.63468 -0.12055,-0.77146 0.35194,-2.64584 0.66695,-2.64584 0.72546,0 3.92713,1.20857 7.15364,2.70036 5.70582,2.63811 9.57501,3.65452 13.88368,3.64714 l 1.46215,-0.002 -1.05833,-0.61245 c -10.2926,-5.95622 -15.95399,-8.61958 -20.31613,-9.5576 -0.91385,-0.19651 -1.04968,-0.53483 -2.18225,-5.43536 -1.17458,-5.08233 -1.67267,-9.18681 -2.00677,-16.53646 -0.29703,-6.53425 -0.20017,-8.52254 0.47053,-9.65793 1.33691,-2.26321 4.97404,-2.07747 6.44125,0.32895 1.25827,2.06373 0.27396,4.55593 -2.31653,5.86524 -0.47294,0.23904 -0.8599,0.55732 -0.8599,0.70729 0,0.14996 0.5492,0.5156 1.22045,0.81252 1.89743,0.83933 3.34128,0.52122 4.8883,-1.07698 1.75805,-1.81621 2.21895,-3.90349 1.44065,-6.52431 -1.1296,-3.80378 -5.30567,-6.34893 -9.25795,-5.64234 -1.73236,0.30971 -2.80243,0.78084 -3.61178,1.59019 l -0.52969,0.52969 -0.88875,-0.78034 c -1.20599,-1.05887 -2.55805,-1.4631 -4.29435,-1.2839 l -1.43196,0.14779 0.71417,-1.23918 c 3.05736,-5.30495 9.83461,-11.52484 17.77036,-16.30894 3.36827,-2.03058 9.70857,-5.16102 13.29514,-6.5643 5.40326,-2.11409 7.94918,-2.46879 9.48574,-1.32158 1.39461,1.04123 1.64097,1.68595 2.30943,6.04376 1.19425,7.78554 2.74836,11.5454 6.17133,14.93032 3.70834,3.66712 7.42522,5.06034 13.6512,5.11697 5.23283,0.0476 8.11652,-0.69908 11.45458,-2.96592 4.48432,-3.04524 6.67955,-7.52966 8.24272,-16.83825 0.66315,-3.94904 1.2143,-5.29938 2.52506,-6.18654 l 0.93125,-0.6303 1.65236,0.59803 c 0.9088,0.32892 3.14065,1.22561 4.95966,1.99265 1.81901,0.76704 5.80401,2.42694 8.85555,3.68866 8.02479,3.31801 19.09198,7.99425 20.75282,8.76874 l 1.43025,0.66696 -1.37937,-1.59223 c -2.91422,-3.36393 -5.29408,-5.26306 -11.0006,-8.7785 -5.29379,-3.26118 -23.61369,-13.52054 -25.72798,-14.40797 -1.96441,-0.82453 -11.09291,-1.716117 -17.52366,-1.711557 -9.00316,0.006 -16.18905,1.186027 -22.47152,3.688957 -1.60143,0.63801 -3.53398,1.17954 -4.92937,1.38129 -2.13185,0.30823 -2.50538,0.2873 -5.24704,-0.29403 -5.0041,-1.06106 -11.24075,-1.00221 -13.42375,0.12666 -1.30059,0.67257 -1.56658,1.56696 -1.56658,5.26771 0,1.82624 -0.0361,3.32043 -0.0803,3.32043 -0.30895,0 -5.78076,-1.96008 -7.71984,-2.76536 -6.28439,-2.60984 -9.50018,-5.76407 -8.61403,-8.44913 1.60533,-4.864187 16.08658,-9.037747 41.81417,-12.051037 15.48796,-1.813995 21.68389,-2.127241 39.42291,-1.993094 7.93089,0.05998 15.01511,0.162361 15.74271,0.227524 0.72761,0.06516 2.45401,0.193656 3.83646,0.285541 3.60391,0.239534 13.6814,1.369209 18.78542,2.105819 8.81912,1.27277 18.53255,3.91769 23.08413,6.28568 3.789845,1.9717 5.762125,4.374067 5.358285,6.526747 -0.11867,0.63256 -0.63374,1.36798 -1.67645,2.39364 -1.744245,1.71573 -3.532495,2.82246 -6.974585,4.31649 -2.59859,1.12792 -10.32665,3.74935 -11.95222,4.05431 -0.528,0.099 -0.96,0.24897 -0.96,0.33316 0,0.0842 1.00034,1.46992 2.22297,3.07941 3.11497,4.1006 5.73225,8.2106 7.59214,11.92218 0.87506,1.74625 1.33026,2.81781 1.01157,2.38125 -0.74464,-1.02005 -5.84543,-6.02591 -6.91945,-6.79069 -0.73459,-0.52307 -0.6672,-0.36405 0.6423,1.51565 3.92803,5.63843 7.97542,13.01912 9.84879,17.95997 0.65897,1.73797 1.16839,3.18967 1.13205,3.22601 -0.0363,0.0363 -0.80235,-0.90938 -1.70225,-2.1016 -0.8999,-1.19222 -2.39925,-3.00108 -3.33189,-4.01967 l -1.69572,-1.85199 2.68045,5.42386 c 3.41847,6.91726 5.93298,12.99149 7.43866,17.96941 0.65379,2.16149 1.187545,4.033 1.186125,4.15889 -10e-4,0.1259 -0.293635,-0.39625 -0.649365,-1.16033 -0.66359,-1.42534 -4.74047,-7.60641 -5.2073,-7.89493 -0.14308,-0.0884 0.10143,0.55551 0.54336,1.43097 0.44193,0.87546 1.02826,2.16713 1.30295,2.87038 0.27469,0.70326 1.18113,2.94552 2.01432,4.98281 1.889555,4.62035 4.294385,11.16473 4.418615,12.02465 0.0889,0.61542 -0.005,0.66323 -1.89083,0.96322 -7.604315,1.20965 -19.753895,5.48588 -29.633325,10.4299 -17.63778,8.82659 -37.15241,24.49235 -49.27071,39.55306 -1.1709,1.45521 -2.17259,2.69545 -2.22598,2.75608 -0.0534,0.0606 -0.0971,-0.18218 -0.0971,-0.53959 z m -65.48935,-55.57408 c -0.95928,-0.89735 -2.04901,-2.15177 -2.42163,-2.7876 -0.8826,-1.50604 -1.67443,-4.0777 -1.67443,-5.4381 0,-1.32331 -0.19814,-1.1706 -0.6595,0.5083 -0.33995,1.23705 -0.35209,1.24867 -0.36887,0.35312 -0.0169,-0.90457 0.20378,-2.1112 0.62881,-3.43751 0.19629,-0.61254 0.17735,-0.63133 -0.26661,-0.26458 -0.26286,0.21714 -0.69631,0.75199 -0.96322,1.18855 -0.26692,0.43656 -0.48558,0.73422 -0.48593,0.66146 -0.005,-0.99037 0.9365,-4.92483 1.40425,-5.87019 0.50485,-1.02032 0.53486,-1.19788 0.16942,-1.0023 -0.60141,0.32187 -2.10419,2.05582 -2.10419,2.42788 0,0.16471 -0.062,0.23747 -0.13778,0.16169 -0.47193,-0.47193 1.35551,-5.42433 2.4469,-6.63114 0.2303,-0.25466 0.29908,-0.46302 0.15284,-0.46302 -0.41866,0 -2.31666,1.45329 -2.98635,2.28662 l -0.60761,0.75608 0.17687,-0.73838 c 0.37378,-1.56041 1.29647,-3.68812 2.14828,-4.9539 0.48825,-0.72554 0.79349,-1.31917 0.6783,-1.31917 -0.1152,0 -0.76199,0.48636 -1.43732,1.08082 -0.67533,0.59445 -1.22788,1.0219 -1.22788,0.9499 0,-0.072 0.35719,-1.22396 0.79375,-2.55989 0.43657,-1.33593 0.79375,-2.60102 0.79375,-2.81129 0,-0.29601 0.11555,-0.32049 0.51178,-0.10844 0.71795,0.38424 1.39112,0.34116 2.06705,-0.13229 l 0.57991,-0.40618 -1.16939,-1.70807 c -1.85354,-2.70737 -2.18043,-4.57035 -1.03978,-5.92593 1.27561,-1.51598 3.34256,-0.84705 4.36953,1.41411 0.39121,0.86135 0.49206,1.74657 0.49977,4.38642 0.0296,10.13493 1.02975,18.27335 3.09717,25.20163 0.6212,2.08175 0.65049,2.36185 0.2905,2.77813 -0.54366,0.62866 -1.00445,2.07293 -1.00445,3.14827 0,0.4876 -0.11471,0.88655 -0.25491,0.88655 -0.14019,0 -1.03976,-0.73419 -1.99903,-1.63155 z m 53.63647,-44.67639 c -2.32897,-0.61015 -4.71225,-1.83801 -5.85394,-3.01594 l -0.84041,-0.86708 2.18823,-1.95816 c 6.28027,-5.61998 11.18501,-10.07039 15.42558,-13.99671 6.20904,-5.74891 7.53822,-6.86631 7.97039,-6.70047 0.19836,0.0761 0.63096,0.57307 0.96132,1.10433 0.56412,0.90716 0.60015,1.23966 0.5922,5.46385 -0.006,3.33947 -0.13331,5.07714 -0.4932,6.74688 -1.1806,5.47738 -2.86263,9.00708 -5.15888,10.82574 -1.32162,1.04675 -3.96363,2.24837 -5.7957,2.63596 -2.20893,0.46733 -6.76244,0.34665 -8.99559,-0.2384 z m 64.50496,-45.928554 c -6.53078,-1.871827 -17.70393,-4.055009 -28.17812,-5.505874 -11.06604,-1.532847 -20.7692,-2.135922 -30.95485,-1.923918 -9.80942,0.204172 -16.78907,0.97018 -24.16283,2.65184 l -2.73019,0.622646 0.17189,-0.685864 c 0.0945,-0.377226 0.75237,-2.293209 1.46183,-4.25774 0.70947,-1.964531 2.25717,-6.310312 3.43933,-9.657291 5.60563,-15.870872 8.42291,-23.612468 9.03097,-24.816234 0.98576,-1.951506 2.78523,-2.9016122 4.82763,-2.5489542 0.59444,0.102642 1.97377,0.333185 3.06518,0.5123202 l 1.98437,0.325698 4.36563,-1.4720932 c 5.7166,-1.927646 7.74869,-2.300535 11.90625,-2.184808 5.08944,0.141667 14.30068,2.219947 24.34166,5.4920742 11.42066,3.721731 16.24201,6.72721 18.60074,11.595123 0.85406,1.762608 1.07871,2.708814 2.01016,8.466666 0.57675,3.56526 1.24197,7.85151 1.47827,9.525 0.40652,2.878981 1.8395,12.256259 2.11257,13.824478 0.15234,0.874865 0.15302,0.874856 -2.77049,0.03693 z"
         id="path1-4" />
      <text
         xml:space="preserve"
         style="font-size:71.7525px;font-family:'Loveland Personal Use';-inkscape-font-specification:'Loveland Personal Use';font-variant-ligatures:discretionary-ligatures;fill:none;fill-rule:evenodd;stroke:#000000;stroke-width:0.0999997;stroke-dasharray:none;paint-order:stroke markers fill"
         x="-95.329208"
         y="133.34897"
         id="text1"><tspan
           sodipodi:role="line"
           id="tspan1"
           style="font-style:normal;font-variant:normal;font-weight:normal;font-stretch:normal;font-size:71.7525px;font-family:Anurati;-inkscape-font-specification:'Anurati, Normal';font-variant-ligatures:discretionary-ligatures;font-variant-caps:normal;font-variant-numeric:normal;font-variant-east-asian:normal;stroke-width:0.0999997;stroke-dasharray:none"
           x="-95.329208"
           y="133.34897">   EGUREYE</tspan></text>
      <text
         xml:space="preserve"
         style="font-style:normal;font-variant:normal;font-weight:normal;font-stretch:normal;font-size:75.6025px;font-family:Anurati;-inkscape-font-specification:'Anurati, Normal';font-variant-ligatures:discretionary-ligatures;font-variant-caps:normal;font-variant-numeric:normal;font-variant-east-asian:normal;fill:none;fill-rule:evenodd;stroke:#000000;stroke-width:0.105898;stroke-dasharray:none;paint-order:stroke markers fill"
         x="1.110379"
         y="150.52893"
         id="text2"
         transform="rotate(44.12361)"><tspan
           sodipodi:role="line"
           id="tspan2"
           style="stroke-width:0.105898;stroke-dasharray:none"
           x="1.110379"
           y="150.52893">S</tspan></text>
    </g>
    <path
       style="fill:none;stroke:#000000;stroke-width:0.0408606;stroke-dasharray:none;stroke-opacity:1"
       d="m -74.472102,91.590239 c 0,-0.567236 -0.67225,-4.997887 -1.0232,-6.743638 -0.33882,-1.685457 -0.88067,-3.679146 -1.29281,-4.756857 l -0.16537,-0.432441 0.047,0.378386 c 0.0258,0.208111 0.0724,0.937858 0.10343,1.621657 l 0.0565,1.243267 -0.19575,-0.648663 c -0.29424,-0.975041 -1.03901,-2.812675 -1.52359,-3.759241 -1.44974,-2.831929 -3.78083,-4.587433 -6.49285,-4.889655 -0.78668,-0.08767 -0.79068,-0.07605 -0.10811,0.314035 0.438,0.250316 0.45805,0.278159 0.20114,0.279331 -0.39907,0.0016 -2.04484,-0.318537 -2.27831,-0.443485 -0.12885,-0.06896 -0.19315,-0.06532 -0.19315,0.01091 0,0.141084 0.95583,0.758198 1.17434,0.758198 0.0875,0 0.13037,0.02864 0.0953,0.06368 -0.12154,0.121544 -1.56267,-0.169829 -2.17131,-0.439002 -0.33656,-0.148839 -0.61192,-0.23168 -0.61192,-0.184094 0,0.12449 0.53146,0.606061 0.973,0.881662 l 0.37838,0.236183 -0.5363,-0.07303 c -0.6737,-0.09175 -1.54547,-0.414605 -2.05722,-0.761892 l -0.393493,-0.267028 0.196183,0.336389 c 0.1079,0.185013 0.35599,0.477579 0.5513,0.650146 0.42107,0.372032 0.37111,0.384225 -0.3896,0.0951 -0.661073,-0.25126 -0.970143,-0.432261 -1.619083,-0.948184 l -0.46435,-0.369171 0.0743,0.308542 c 0.0409,0.169699 0.16572,0.491092 0.27749,0.714212 l 0.20321,0.405677 -0.67802,-0.375346 c -0.37291,-0.206436 -0.90699,-0.572303 -1.18684,-0.813033 l -0.50882,-0.437691 0.16372,0.391849 0.16373,0.391854 -0.6279,-0.353956 c -1.12373,-0.633466 -2.23089,-1.439549 -2.88399,-2.099738 -0.72273,-0.730581 -1.44207,-1.651024 -1.48,-1.893761 -0.0493,-0.315223 0.1438,-1.081107 0.27252,-1.081107 0.29643,0 1.60465,0.493829 2.92302,1.103385 2.33144,1.077948 3.91241,1.49326 5.672963,1.490245 l 0.59745,-8.18e-4 -0.43244,-0.250251 c -4.205633,-2.43375 -6.518913,-3.522016 -8.301313,-3.905297 -0.3734,-0.08029 -0.4289,-0.218535 -0.89168,-2.220923 -0.47994,-2.076673 -0.68346,-3.75379 -0.81998,-6.756905 -0.12137,-2.669937 -0.0818,-3.482365 0.19226,-3.946293 0.54627,-0.924762 2.03243,-0.848868 2.63194,0.134411 0.51414,0.843254 0.11194,1.861583 -0.94655,2.396575 -0.19324,0.09767 -0.35136,0.227725 -0.35136,0.289003 0,0.06127 0.22441,0.210678 0.49869,0.332001 0.7753,0.342956 1.36526,0.212974 1.99739,-0.440061 0.71835,-0.742115 0.90667,-1.594991 0.58866,-2.665875 -0.46157,-1.554249 -2.16794,-2.594214 -3.78286,-2.305497 -0.70786,0.12655 -1.14509,0.319057 -1.475805,0.649762 l -0.21643,0.216435 -0.36315,-0.318852 c -0.49278,-0.432661 -1.04524,-0.597832 -1.7547,-0.52461 l -0.58511,0.06039 0.29181,-0.506337 c 1.24926,-2.167637 4.018495,-4.709124 7.261095,-6.663939 1.37629,-0.829708 3.96698,-2.108826 5.432483,-2.682215 2.20781,-0.863831 3.24808,-1.008764 3.87593,-0.540006 0.56985,0.425453 0.67051,0.68889 0.94365,2.469519 0.48798,3.181222 1.123,4.717526 2.52165,6.100626 1.51525,1.498409 3.03399,2.067688 5.57797,2.090827 2.13816,0.01945 3.31646,-0.285649 4.68041,-1.211894 1.83232,-1.244305 2.72931,-3.076668 3.36803,-6.880218 0.27097,-1.613604 0.49617,-2.165361 1.03176,-2.527861 l 0.38051,-0.257544 0.67517,0.244359 c 0.37134,0.134398 1.28329,0.500792 2.02655,0.814209 0.74325,0.313418 2.37155,0.991664 3.61843,1.507211 3.278982,1.35576 7.801107,3.266502 8.479737,3.582964 l 0.58441,0.272524 -0.56362,-0.650596 c -1.190769,-1.374523 -2.163195,-2.15052 -4.494916,-3.586952 -2.163077,-1.332539 -9.648711,-5.52458 -10.512621,-5.88719 -0.80267,-0.336908 -4.53263,-0.701216 -7.16028,-0.699353 -3.67875,0.0025 -6.61495,0.484618 -9.18201,1.507332 -0.65435,0.260695 -1.44401,0.481968 -2.01417,0.564404 -0.87109,0.125945 -1.02372,0.117393 -2.14398,-0.120143 -2.044703,-0.433556 -4.593043,-0.409509 -5.485033,0.05175 -0.53143,0.274817 -0.64011,0.64027 -0.64011,2.152421 0,0.746213 -0.0147,1.356749 -0.0328,1.356749 -0.12624,0 -2.36206,-0.800901 -3.15438,-1.129944 -2.567845,-1.066397 -3.881845,-2.355236 -3.519755,-3.452369 0.65595,-1.987539 6.573085,-3.692882 17.085548,-4.924132 6.32848,-0.741211 8.86018,-0.869205 16.10846,-0.814392 3.24061,0.02451 6.13527,0.06634 6.43257,0.09297 0.29731,0.02663 1.002727,0.07913 1.567605,0.116674 1.472581,0.09788 5.590309,0.559468 7.675845,0.860452 3.603549,0.520062 7.57252,1.600793 9.432325,2.568369 1.548555,0.80565 2.354442,1.787273 2.18943,2.666872 -0.04849,0.258468 -0.25895,0.558965 -0.685008,0.978056 -0.71271,0.701059 -1.443401,1.153276 -2.849861,1.763746 -1.061801,0.460876 -4.219536,1.532009 -4.883755,1.656618 -0.215744,0.04045 -0.392262,0.10173 -0.392262,0.136131 0,0.0344 0.408745,0.600619 0.90832,1.258267 1.272797,1.675532 2.342235,3.354904 3.102198,4.87148 0.357555,0.713529 0.543553,1.151375 0.413334,0.972994 -0.304265,-0.416799 -2.388481,-2.462226 -2.827332,-2.77472 -0.300159,-0.21373 -0.272623,-0.148753 0.262448,0.619305 1.605018,2.303899 3.258808,5.319696 4.024279,7.33856 0.269259,0.710146 0.477412,1.30332 0.462563,1.318168 -0.01483,0.01483 -0.327845,-0.371578 -0.69555,-0.858727 -0.367705,-0.487149 -0.98035,-1.226261 -1.361432,-1.642463 l -0.692882,-0.756735 1.095249,2.216224 c 1.396809,2.826437 2.424254,5.308407 3.039484,7.342417 0.267143,0.883199 0.485239,1.64791 0.484659,1.69935 -4.09e-4,0.05144 -0.119981,-0.16191 -0.265335,-0.474118 -0.271147,-0.582404 -1.936987,-3.108029 -2.127736,-3.22592 -0.05846,-0.03612 0.04144,0.226985 0.22202,0.584704 0.180575,0.357718 0.420154,0.885503 0.532394,1.172855 0.11224,0.287357 0.482617,1.203559 0.823064,2.036009 0.772084,1.887905 1.754714,4.561981 1.805475,4.91335 0.03632,0.251465 -0.002,0.271 -0.772606,0.393578 -3.107172,0.494271 -8.071569,2.241566 -12.108368,4.261725 -7.206912,3.606602 -15.180715,10.007733 -20.132335,16.161637 -0.47843,0.594608 -0.88773,1.101378 -0.90955,1.126152 -0.0218,0.02476 -0.0397,-0.07444 -0.0397,-0.22048 z m -26.759378,-22.70793 c -0.39197,-0.366663 -0.83724,-0.879227 -0.98949,-1.139031 -0.36064,-0.615378 -0.68419,-1.666175 -0.68419,-2.222043 0,-0.540713 -0.081,-0.478315 -0.26947,0.207694 -0.13891,0.505467 -0.14387,0.510215 -0.15072,0.144288 -0.007,-0.369614 0.0833,-0.86265 0.25693,-1.404589 0.0802,-0.250288 0.0725,-0.257966 -0.10894,-0.108109 -0.1074,0.08872 -0.28451,0.307268 -0.39358,0.485649 -0.10906,0.178381 -0.19841,0.300007 -0.19855,0.270277 -0.002,-0.404672 0.38266,-2.012318 0.57379,-2.398598 0.20628,-0.416909 0.21854,-0.489462 0.0692,-0.409546 -0.24574,0.131518 -0.85978,0.840021 -0.85978,0.992047 0,0.0673 -0.0253,0.09703 -0.0563,0.06607 -0.19284,-0.192834 0.55387,-2.216417 0.99982,-2.709527 0.0941,-0.104056 0.1222,-0.189193 0.0624,-0.189193 -0.17107,0 -0.9466,0.593824 -1.22024,0.934328 l -0.24828,0.308939 0.0723,-0.301707 c 0.15273,-0.637594 0.52975,-1.50699 0.87781,-2.024196 0.1995,-0.29646 0.32422,-0.539021 0.27715,-0.539021 -0.0471,0 -0.31135,0.19873 -0.5873,0.44163 -0.27594,0.242896 -0.50172,0.417555 -0.50172,0.388135 0,-0.02942 0.14596,-0.500118 0.32434,-1.045987 0.17838,-0.54587 0.32433,-1.062794 0.32433,-1.148712 0,-0.120951 0.0472,-0.130954 0.20911,-0.04431 0.29336,0.157003 0.56843,0.1394 0.84461,-0.05405 l 0.23696,-0.165967 -0.47782,-0.697929 c -0.75737,-1.106249 -0.89094,-1.867474 -0.42486,-2.421373 0.52122,-0.619439 1.36579,-0.34611 1.78542,0.577814 0.15985,0.351953 0.20106,0.71366 0.20421,1.79232 0.0121,4.141198 0.42076,7.466609 1.26552,10.297549 0.253835,0.850617 0.265795,0.965068 0.118705,1.135162 -0.222145,0.256875 -0.410435,0.847013 -0.410435,1.286404 0,0.199236 -0.0469,0.36225 -0.10415,0.36225 -0.0573,0 -0.42486,-0.299995 -0.81682,-0.666662 z m 21.916218,-18.255063 c -0.95163,-0.249311 -1.92546,-0.751022 -2.39196,-1.232332 l -0.34339,-0.354295 0.89412,-0.800117 c 2.56616,-2.29636 4.57027,-4.114826 6.30299,-5.719146 2.53706,-2.349042 3.08017,-2.805619 3.25676,-2.737856 0.081,0.0311 0.25781,0.23416 0.3928,0.451237 0.2305,0.370671 0.24522,0.506533 0.24197,2.232564 -0.002,1.364529 -0.0545,2.074553 -0.20152,2.756819 -0.4824,2.238093 -1.16969,3.680352 -2.10795,4.423468 -0.54003,0.427709 -1.61957,0.918698 -2.36816,1.07707 -0.90259,0.190954 -2.76318,0.141644 -3.67566,-0.09741 z m 26.357145,-18.766705 c -2.668519,-0.764841 -7.233941,-1.656903 -11.513765,-2.249736 -4.52165,-0.626331 -8.48643,-0.872751 -12.64835,-0.786125 -4.00819,0.08343 -6.86012,0.396422 -9.87309,1.083559 l -1.11557,0.254417 0.0702,-0.280249 c 0.0386,-0.154137 0.30743,-0.93702 0.59732,-1.73974 0.28989,-0.80272 0.92229,-2.578434 1.40533,-3.946031 2.2905,-6.484942 3.44165,-9.648208 3.69011,-10.140075 0.40279,-0.797398 1.13806,-1.185617 1.9726,-1.041519 0.24289,0.04194 0.8065,0.136142 1.25245,0.209337 l 0.81083,0.133083 1.78383,-0.601507 c 2.33584,-0.787648 3.16616,-0.940013 4.86497,-0.892726 2.07958,0.05789 5.84335,0.907084 9.94616,2.244096 4.666553,1.520724 6.636588,2.748782 7.60038,4.737843 0.348975,0.720213 0.440768,1.106839 0.821365,3.459535 0.235664,1.456788 0.507477,3.208177 0.60403,3.891976 0.166107,1.176371 0.751632,5.007987 0.86321,5.648772 0.06225,0.357475 0.06252,0.357472 -1.13204,0.01509 z"
       id="path1-3" />
    <path
       style="fill:none;stroke:#000000;stroke-width:0.0408606;stroke-dasharray:none;stroke-opacity:1"
       d="m -74.472157,-41.759922 c 0,-0.567236 -0.67225,-4.997887 -1.0232,-6.743638 -0.33883,-1.685456 -0.88067,-3.679145 -1.29281,-4.756857 l -0.16537,-0.432441 0.047,0.378386 c 0.0258,0.208112 0.0724,0.937858 0.10344,1.621657 l 0.0565,1.243267 -0.19575,-0.648663 c -0.29424,-0.975041 -1.03901,-2.812675 -1.52359,-3.759241 -1.44974,-2.831929 -3.78084,-4.587433 -6.49285,-4.889655 -0.78668,-0.08767 -0.79068,-0.07605 -0.10811,0.314035 0.438,0.250316 0.45805,0.278159 0.20114,0.279332 -0.39907,0.0016 -2.04484,-0.318538 -2.27831,-0.443486 -0.12885,-0.06896 -0.19315,-0.06532 -0.19315,0.01091 0,0.141084 0.95583,0.758198 1.17434,0.758198 0.0875,0 0.13037,0.02864 0.0953,0.06368 -0.12154,0.121545 -1.56267,-0.169829 -2.17131,-0.439002 -0.33656,-0.148839 -0.61192,-0.23168 -0.61192,-0.184094 0,0.12449 0.53146,0.606062 0.973,0.881663 l 0.37838,0.236182 -0.5363,-0.07303 c -0.6737,-0.09175 -1.54547,-0.414605 -2.05722,-0.761892 l -0.39349,-0.267028 0.19618,0.336389 c 0.1079,0.185013 0.35599,0.477579 0.5513,0.650146 0.42107,0.372032 0.37111,0.384225 -0.3896,0.0951 -0.66107,-0.25126 -0.97014,-0.43226 -1.61908,-0.948183 l -0.46435,-0.369172 0.0743,0.308543 c 0.0409,0.169698 0.16572,0.491091 0.27749,0.714211 l 0.20321,0.405677 -0.67802,-0.375346 c -0.37291,-0.206436 -0.90699,-0.572302 -1.18684,-0.813033 l -0.50882,-0.437691 0.16372,0.391849 0.16373,0.391854 -0.6279,-0.353955 c -1.12373,-0.633467 -2.23089,-1.43955 -2.88399,-2.099739 -0.72273,-0.73058 -1.44207,-1.651024 -1.48,-1.89376 -0.0493,-0.315224 0.1438,-1.081108 0.27252,-1.081108 0.29643,0 1.60465,0.49383 2.92302,1.103385 2.33144,1.077949 3.91241,1.49326 5.67296,1.490245 l 0.59745,-8.17e-4 -0.43244,-0.250251 c -4.20563,-2.433751 -6.51891,-3.522017 -8.30131,-3.905298 -0.3734,-0.0803 -0.4289,-0.218535 -0.89168,-2.220923 -0.47994,-2.076673 -0.68346,-3.75379 -0.81998,-6.756905 -0.12137,-2.669937 -0.0818,-3.482365 0.19226,-3.946293 0.54627,-0.924762 2.03243,-0.848867 2.63194,0.134411 0.51414,0.843254 0.11194,1.861583 -0.94655,2.396576 -0.19324,0.09767 -0.35136,0.227724 -0.35136,0.289003 0,0.06127 0.22441,0.210677 0.49869,0.332001 0.7753,0.342955 1.36526,0.212974 1.99739,-0.440061 0.71835,-0.742115 0.90667,-1.594992 0.58866,-2.665876 -0.46157,-1.554249 -2.16794,-2.594214 -3.78286,-2.305496 -0.70786,0.126549 -1.14509,0.319056 -1.475803,0.649762 l -0.21643,0.216434 -0.36315,-0.318852 c -0.49278,-0.432661 -1.04524,-0.597832 -1.7547,-0.524609 l -0.58511,0.06039 0.29181,-0.506337 c 1.24926,-2.167637 4.018493,-4.709125 7.261093,-6.663939 1.37629,-0.829708 3.96698,-2.108826 5.43248,-2.682216 2.20781,-0.86383 3.24808,-1.008763 3.87593,-0.540006 0.56985,0.425454 0.67051,0.68889 0.94365,2.46952 0.48798,3.181222 1.123,4.717525 2.52165,6.100625 1.51525,1.498409 3.03399,2.067688 5.57797,2.090827 2.13816,0.01945 3.31646,-0.285648 4.68041,-1.211894 1.83232,-1.244305 2.72931,-3.076668 3.36803,-6.880218 0.27097,-1.613603 0.49617,-2.165361 1.03176,-2.52786 l 0.38051,-0.257545 0.67517,0.244359 c 0.37134,0.134399 1.28329,0.500792 2.02654,0.81421 0.74326,0.313417 2.37156,0.991663 3.61844,1.50721 3.27898,1.355761 7.80111,3.266503 8.47974,3.582964 l 0.58441,0.272524 -0.56362,-0.650595 c -1.19077,-1.374524 -2.1632,-2.150521 -4.49492,-3.586952 -2.16308,-1.332539 -9.64871,-5.52458 -10.51262,-5.88719 -0.80267,-0.336908 -4.53263,-0.701214 -7.16028,-0.699354 -3.67875,0.002 -6.61495,0.484619 -9.18201,1.507332 -0.65435,0.260695 -1.44401,0.481968 -2.01417,0.564404 -0.87109,0.125945 -1.02372,0.117393 -2.14398,-0.120142 -2.0447,-0.433556 -4.59304,-0.40951 -5.48503,0.05175 -0.53143,0.274816 -0.64011,0.64027 -0.64011,2.15242 0,0.746214 -0.0148,1.35675 -0.0328,1.35675 -0.12624,0 -2.36206,-0.800902 -3.15438,-1.129944 -2.567843,-1.066398 -3.881843,-2.355237 -3.519753,-3.45237 0.65595,-1.98753 6.573083,-3.69288 17.085543,-4.924132 6.32848,-0.74121 8.86018,-0.8692 16.10846,-0.81439 3.24061,0.0245 6.13527,0.0663 6.43257,0.093 0.29731,0.0266 1.00273,0.0791 1.5676,0.11667 1.47259,0.0979 5.59031,0.55947 7.67585,0.860452 3.60355,0.52007 7.57252,1.6008 9.43232,2.56837 1.54856,0.80565 2.35445,1.787272 2.18943,2.666871 -0.0485,0.258468 -0.25895,0.558966 -0.685,0.978057 -0.71271,0.701058 -1.4434,1.153275 -2.84986,1.763746 -1.06181,0.460875 -4.21954,1.532008 -4.88376,1.656617 -0.21574,0.04045 -0.39226,0.101731 -0.39226,0.136131 0,0.03441 0.40874,0.600619 0.90832,1.258267 1.2728,1.675532 2.34223,3.354905 3.1022,4.87148 0.35755,0.713529 0.54355,1.151376 0.41333,0.972995 -0.30426,-0.4168 -2.38848,-2.462226 -2.82733,-2.77472 -0.30016,-0.21373 -0.27262,-0.148754 0.26245,0.619304 1.60501,2.303899 3.2588,5.319697 4.02428,7.33856 0.26925,0.710146 0.47741,1.30332 0.46256,1.318169 -0.0148,0.01483 -0.32785,-0.371579 -0.69555,-0.858728 -0.36771,-0.487148 -0.98035,-1.22626 -1.36143,-1.642463 l -0.69289,-0.756735 1.09525,2.216224 c 1.39681,2.826438 2.42426,5.308407 3.03949,7.342418 0.26714,0.883199 0.48524,1.64791 0.48466,1.699349 -4.1e-4,0.05144 -0.11998,-0.16191 -0.26534,-0.474118 -0.27115,-0.582403 -1.93699,-3.108029 -2.12774,-3.22592 -0.0585,-0.03612 0.0414,0.226985 0.22203,0.584704 0.18057,0.357719 0.42015,0.885503 0.53239,1.172856 0.11224,0.287356 0.48262,1.203558 0.82306,2.036008 0.77209,1.887905 1.75472,4.561981 1.80548,4.91335 0.0363,0.251465 -0.002,0.271 -0.77261,0.393578 -3.10717,0.494271 -8.07157,2.241566 -12.10837,4.261725 -7.20691,3.606602 -15.18071,10.007733 -20.13233,16.161637 -0.47843,0.594608 -0.88773,1.101378 -0.90955,1.126152 -0.0218,0.02476 -0.0397,-0.07444 -0.0397,-0.22048 z m -26.759373,-22.70793 c -0.39197,-0.366663 -0.83724,-0.879227 -0.98949,-1.139031 -0.36064,-0.615378 -0.68419,-1.666175 -0.68419,-2.222043 0,-0.540713 -0.081,-0.478315 -0.26947,0.207695 -0.13891,0.505466 -0.14387,0.510214 -0.15072,0.144287 -0.007,-0.369613 0.0833,-0.86265 0.25693,-1.404589 0.0802,-0.250288 0.0725,-0.257966 -0.10894,-0.108109 -0.1074,0.08872 -0.28451,0.307268 -0.39358,0.485649 -0.10906,0.178381 -0.19841,0.300007 -0.19855,0.270277 -0.002,-0.404672 0.38266,-2.012318 0.57379,-2.398598 0.20628,-0.416909 0.21854,-0.489461 0.0692,-0.409546 -0.24574,0.131518 -0.85978,0.840021 -0.85978,0.992047 0,0.0673 -0.0253,0.09703 -0.0563,0.06607 -0.19284,-0.192834 0.55387,-2.216416 0.99982,-2.709527 0.0941,-0.104055 0.1222,-0.189193 0.0625,-0.189193 -0.17107,0 -0.9466,0.593824 -1.22024,0.934328 l -0.24828,0.308939 0.0723,-0.301707 c 0.15273,-0.637593 0.52975,-1.506989 0.87781,-2.024195 0.1995,-0.296461 0.32422,-0.539022 0.27715,-0.539022 -0.0471,0 -0.31135,0.19873 -0.5873,0.44163 -0.27594,0.242896 -0.50172,0.417555 -0.50172,0.388136 0,-0.02942 0.14596,-0.500118 0.32434,-1.045988 0.17838,-0.54587 0.32433,-1.062794 0.32433,-1.148711 0,-0.120952 0.0472,-0.130955 0.20911,-0.04431 0.29336,0.157003 0.56843,0.139401 0.84461,-0.05405 l 0.23696,-0.165968 -0.47782,-0.697928 c -0.75737,-1.106249 -0.89094,-1.867475 -0.42486,-2.421374 0.52122,-0.619439 1.36579,-0.34611 1.78542,0.577815 0.15985,0.351953 0.20106,0.71366 0.20421,1.792319 0.0121,4.141198 0.42076,7.46661 1.26552,10.29755 0.253833,0.850616 0.265793,0.965067 0.118703,1.135162 -0.222143,0.256874 -0.410433,0.847012 -0.410433,1.286403 0,0.199237 -0.0469,0.36225 -0.10415,0.36225 -0.0573,0 -0.42486,-0.299995 -0.81682,-0.666662 z m 21.916213,-18.255062 c -0.95163,-0.249311 -1.92546,-0.751023 -2.39196,-1.232333 l -0.3434,-0.354294 0.89413,-0.800117 c 2.56616,-2.29636 4.57027,-4.114827 6.30299,-5.719147 2.53706,-2.349042 3.08017,-2.805618 3.25675,-2.737855 0.0811,0.0311 0.25782,0.23416 0.39281,0.451236 0.2305,0.370672 0.24522,0.506533 0.24197,2.232565 -0.002,1.364529 -0.0545,2.074552 -0.20152,2.756819 -0.4824,2.238093 -1.16969,3.680351 -2.10795,4.423467 -0.54003,0.427709 -1.61957,0.918699 -2.36816,1.077071 -0.90259,0.190954 -2.76318,0.141643 -3.67566,-0.09741 z m 26.35714,-18.766706 c -2.66851,-0.76484 -7.23394,-1.6569 -11.51376,-2.24974 -4.52165,-0.62633 -8.48643,-0.87275 -12.64835,-0.78612 -4.00819,0.0834 -6.86012,0.39642 -9.87309,1.08356 l -1.11557,0.25441 0.0702,-0.28024 c 0.0386,-0.15414 0.30743,-0.93702 0.59732,-1.73974 0.28989,-0.80272 0.92229,-2.57844 1.40533,-3.94604 2.2905,-6.48494 3.44165,-9.6482 3.69011,-10.14007 0.40279,-0.7974 1.13806,-1.18562 1.9726,-1.04152 0.24289,0.0419 0.8065,0.13614 1.25245,0.20934 l 0.81083,0.13308 1.78383,-0.60151 c 2.33584,-0.78764 3.16616,-0.94001 4.86497,-0.89273 2.07957,0.0579 5.84335,0.90709 9.94616,2.2441 4.66655,1.52073 6.63659,2.74879 7.60038,4.73785 0.34897,0.72021 0.44077,1.10683 0.82136,3.45953 0.23567,1.45679 0.50748,3.20818 0.60403,3.89198 0.16611,1.17637 0.75164,5.00798 0.86321,5.64877 0.0623,0.35747 0.0625,0.35747 -1.13204,0.0151 z"
       id="path1-6" />
    <g
       id="g9"
       transform="matrix(0.40860649,0,0,0.40860649,212.4391,-33.608947)">
      <path
         style="fill:none;stroke:#000000;stroke-width:0.1;stroke-dasharray:none;stroke-opacity:1"
         d="m -180.45797,201.94257 c 0,-1.38822 -1.64524,-12.23154 -2.50413,-16.50399 -0.82922,-4.12489 -2.15529,-9.00413 -3.16394,-11.64166 l -0.40473,-1.05833 0.11492,0.92604 c 0.0632,0.50932 0.17711,2.29526 0.25313,3.96875 l 0.13821,3.0427 -0.47906,-1.5875 c -0.7201,-2.38626 -2.54283,-6.88358 -3.72875,-9.20015 -3.54802,-6.9307 -9.253,-11.22702 -15.89023,-11.96666 -1.92528,-0.21455 -1.93507,-0.18611 -0.26458,0.76855 1.07194,0.61261 1.12101,0.68075 0.49225,0.68362 -0.97666,0.004 -5.00442,-0.77957 -5.57579,-1.08536 -0.31534,-0.16876 -0.47271,-0.15986 -0.47271,0.0267 0,0.34528 2.33923,1.85557 2.87402,1.85557 0.21404,0 0.31904,0.0701 0.23332,0.15585 -0.29746,0.29746 -3.82438,-0.41563 -5.31394,-1.07439 -0.82367,-0.36426 -1.49757,-0.567 -1.49757,-0.45054 0,0.30467 1.30066,1.48324 2.38125,2.15773 l 0.92604,0.57802 -1.31252,-0.17874 c -1.64877,-0.22454 -3.78229,-1.01468 -5.03473,-1.86461 l -0.963,-0.65351 0.48013,0.82326 c 0.26407,0.45279 0.87122,1.1688 1.34922,1.59113 1.03051,0.91049 0.90824,0.94033 -0.95349,0.23273 -1.61787,-0.61492 -2.37427,-1.05789 -3.96245,-2.32053 l -1.13642,-0.90349 0.18178,0.75511 c 0.1,0.41531 0.40557,1.20187 0.6791,1.74792 l 0.49733,0.99283 -1.65935,-0.9186 c -0.91264,-0.50522 -2.21971,-1.40062 -2.90461,-1.98977 l -1.24526,-1.07118 0.40069,0.95899 0.4007,0.959 -1.53668,-0.86625 c -2.75017,-1.55031 -5.45976,-3.52307 -7.05811,-5.13878 -1.76878,-1.78798 -3.52924,-4.04062 -3.62208,-4.63468 -0.12055,-0.77146 0.35194,-2.64584 0.66695,-2.64584 0.72546,0 3.92713,1.20857 7.15364,2.70036 5.70582,2.63811 9.57501,3.65452 13.88368,3.64714 l 1.46215,-0.002 -1.05833,-0.61245 c -10.2926,-5.95622 -15.95399,-8.61958 -20.31613,-9.5576 -0.91385,-0.19651 -1.04968,-0.53483 -2.18225,-5.43536 -1.17458,-5.08233 -1.67267,-9.18681 -2.00677,-16.53646 -0.29703,-6.53425 -0.20017,-8.52254 0.47053,-9.65793 1.33691,-2.26321 4.97404,-2.07747 6.44125,0.32895 1.25827,2.06373 0.27396,4.55593 -2.31653,5.86524 -0.47294,0.23904 -0.8599,0.55732 -0.8599,0.70729 0,0.14996 0.5492,0.5156 1.22045,0.81252 1.89743,0.83933 3.34128,0.52122 4.8883,-1.07698 1.75805,-1.81621 2.21895,-3.90349 1.44065,-6.52431 -1.1296,-3.80378 -5.30567,-6.34893 -9.25795,-5.64234 -1.73236,0.30971 -2.80243,0.78084 -3.61178,1.59019 l -0.52969,0.52969 -0.88875,-0.78034 c -1.20599,-1.05887 -2.55805,-1.4631 -4.29435,-1.2839 l -1.43196,0.14779 0.71417,-1.23918 c 3.05736,-5.30495 9.83461,-11.52484 17.77036,-16.30894 3.36827,-2.03058 9.70857,-5.16102 13.29514,-6.5643 5.40326,-2.11409 7.94918,-2.46879 9.48574,-1.32158 1.39461,1.04123 1.64097,1.68595 2.30943,6.04376 1.19425,7.78554 2.74836,11.5454 6.17133,14.93032 3.70834,3.66712 7.42522,5.06034 13.6512,5.11697 5.23283,0.0476 8.11652,-0.69908 11.45458,-2.96592 4.48432,-3.04524 6.67955,-7.52966 8.24272,-16.83825 0.66315,-3.94904 1.2143,-5.29938 2.52506,-6.18654 l 0.93125,-0.6303 1.65236,0.59803 c 0.9088,0.32892 3.14065,1.22561 4.95966,1.99265 1.81901,0.76704 5.80401,2.42694 8.85555,3.68866 8.02479,3.31801 19.09198,7.99425 20.75282,8.76874 l 1.43025,0.66696 -1.37937,-1.59223 c -2.91422,-3.36393 -5.29408,-5.26306 -11.0006,-8.7785 -5.29379,-3.26118 -23.61369,-13.52054 -25.72798,-14.40797 -1.96441,-0.82453 -11.09291,-1.716117 -17.52366,-1.711557 -9.00316,0.006 -16.18905,1.186027 -22.47152,3.688957 -1.60143,0.63801 -3.53398,1.17954 -4.92937,1.38129 -2.13185,0.30823 -2.50538,0.2873 -5.24704,-0.29403 -5.0041,-1.06106 -11.24075,-1.00221 -13.42375,0.12666 -1.30059,0.67257 -1.56658,1.56696 -1.56658,5.26771 0,1.82624 -0.0361,3.32043 -0.0803,3.32043 -0.30895,0 -5.78076,-1.96008 -7.71984,-2.76536 -6.28439,-2.60984 -9.50018,-5.76407 -8.61403,-8.44913 1.60533,-4.864187 16.08658,-9.037747 41.81417,-12.051037 15.48796,-1.813995 21.68389,-2.127241 39.42291,-1.993094 7.93089,0.05998 15.01511,0.162361 15.74271,0.227524 0.72761,0.06516 2.45401,0.193656 3.83646,0.285541 3.60391,0.239534 13.6814,1.369209 18.78542,2.105819 8.81912,1.27277 18.53255,3.91769 23.08413,6.28568 3.789845,1.9717 5.762125,4.374067 5.358285,6.526747 -0.11867,0.63256 -0.63374,1.36798 -1.67645,2.39364 -1.744245,1.71573 -3.532495,2.82246 -6.974585,4.31649 -2.59859,1.12792 -10.32665,3.74935 -11.95222,4.05431 -0.528,0.099 -0.96,0.24897 -0.96,0.33316 0,0.0842 1.00034,1.46992 2.22297,3.07941 3.11497,4.1006 5.73225,8.2106 7.59214,11.92218 0.87506,1.74625 1.33026,2.81781 1.01157,2.38125 -0.74464,-1.02005 -5.84543,-6.02591 -6.91945,-6.79069 -0.73459,-0.52307 -0.6672,-0.36405 0.6423,1.51565 3.92803,5.63843 7.97542,13.01912 9.84879,17.95997 0.65897,1.73797 1.16839,3.18967 1.13205,3.22601 -0.0363,0.0363 -0.80235,-0.90938 -1.70225,-2.1016 -0.8999,-1.19222 -2.39925,-3.00108 -3.33189,-4.01967 l -1.69572,-1.85199 2.68045,5.42386 c 3.41847,6.91726 5.93298,12.99149 7.43866,17.96941 0.65379,2.16149 1.187545,4.033 1.186125,4.15889 -10e-4,0.1259 -0.293635,-0.39625 -0.649365,-1.16033 -0.66359,-1.42534 -4.74047,-7.60641 -5.2073,-7.89493 -0.14308,-0.0884 0.10143,0.55551 0.54336,1.43097 0.44193,0.87546 1.02826,2.16713 1.30295,2.87038 0.27469,0.70326 1.18113,2.94552 2.01432,4.98281 1.889555,4.62035 4.294385,11.16473 4.418615,12.02465 0.0889,0.61542 -0.005,0.66323 -1.89083,0.96322 -7.604315,1.20965 -19.753895,5.48588 -29.633325,10.4299 -17.63778,8.82659 -37.15241,24.49235 -49.27071,39.55306 -1.1709,1.45521 -2.17259,2.69545 -2.22598,2.75608 -0.0534,0.0606 -0.0971,-0.18218 -0.0971,-0.53959 z m -65.48935,-55.57408 c -0.95928,-0.89735 -2.04901,-2.15177 -2.42163,-2.7876 -0.8826,-1.50604 -1.67443,-4.0777 -1.67443,-5.4381 0,-1.32331 -0.19814,-1.1706 -0.6595,0.5083 -0.33995,1.23705 -0.35209,1.24867 -0.36887,0.35312 -0.0169,-0.90457 0.20378,-2.1112 0.62881,-3.43751 0.19629,-0.61254 0.17735,-0.63133 -0.26661,-0.26458 -0.26286,0.21714 -0.69631,0.75199 -0.96322,1.18855 -0.26692,0.43656 -0.48558,0.73422 -0.48593,0.66146 -0.005,-0.99037 0.9365,-4.92483 1.40425,-5.87019 0.50485,-1.02032 0.53486,-1.19788 0.16942,-1.0023 -0.60141,0.32187 -2.10419,2.05582 -2.10419,2.42788 0,0.16471 -0.062,0.23747 -0.13778,0.16169 -0.47193,-0.47193 1.35551,-5.42433 2.4469,-6.63114 0.2303,-0.25466 0.29908,-0.46302 0.15284,-0.46302 -0.41866,0 -2.31666,1.45329 -2.98635,2.28662 l -0.60761,0.75608 0.17687,-0.73838 c 0.37378,-1.56041 1.29647,-3.68812 2.14828,-4.9539 0.48825,-0.72554 0.79349,-1.31917 0.6783,-1.31917 -0.1152,0 -0.76199,0.48636 -1.43732,1.08082 -0.67533,0.59445 -1.22788,1.0219 -1.22788,0.9499 0,-0.072 0.35719,-1.22396 0.79375,-2.55989 0.43657,-1.33593 0.79375,-2.60102 0.79375,-2.81129 0,-0.29601 0.11555,-0.32049 0.51178,-0.10844 0.71795,0.38424 1.39112,0.34116 2.06705,-0.13229 l 0.57991,-0.40618 -1.16939,-1.70807 c -1.85354,-2.70737 -2.18043,-4.57035 -1.03978,-5.92593 1.27561,-1.51598 3.34256,-0.84705 4.36953,1.41411 0.39121,0.86135 0.49206,1.74657 0.49977,4.38642 0.0296,10.13493 1.02975,18.27335 3.09717,25.20163 0.6212,2.08175 0.65049,2.36185 0.2905,2.77813 -0.54366,0.62866 -1.00445,2.07293 -1.00445,3.14827 0,0.4876 -0.11471,0.88655 -0.25491,0.88655 -0.14019,0 -1.03976,-0.73419 -1.99903,-1.63155 z m 53.63647,-44.67639 c -2.32897,-0.61015 -4.71225,-1.83801 -5.85394,-3.01594 l -0.84041,-0.86708 2.18823,-1.95816 c 6.28027,-5.61998 11.18501,-10.07039 15.42558,-13.99671 6.20904,-5.74891 7.53822,-6.86631 7.97039,-6.70047 0.19836,0.0761 0.63096,0.57307 0.96132,1.10433 0.56412,0.90716 0.60015,1.23966 0.5922,5.46385 -0.006,3.33947 -0.13331,5.07714 -0.4932,6.74688 -1.1806,5.47738 -2.86263,9.00708 -5.15888,10.82574 -1.32162,1.04675 -3.96363,2.24837 -5.7957,2.63596 -2.20893,0.46733 -6.76244,0.34665 -8.99559,-0.2384 z m 64.50496,-45.928554 c -6.53078,-1.871827 -17.70393,-4.055009 -28.17812,-5.505874 -11.06604,-1.532847 -20.7692,-2.135922 -30.95485,-1.923918 -9.80942,0.204172 -16.78907,0.97018 -24.16283,2.65184 l -2.73019,0.622646 0.17189,-0.685864 c 0.0945,-0.377226 0.75237,-2.293209 1.46183,-4.25774 0.70947,-1.964531 2.25717,-6.310312 3.43933,-9.657291 5.60563,-15.870872 8.42291,-23.612468 9.03097,-24.816234 0.98576,-1.951506 2.78523,-2.9016122 4.82763,-2.5489542 0.59444,0.102642 1.97377,0.333185 3.06518,0.5123202 l 1.98437,0.325698 4.36563,-1.4720932 c 5.7166,-1.927646 7.74869,-2.300535 11.90625,-2.184808 5.08944,0.141667 14.30068,2.219947 24.34166,5.4920742 11.42066,3.721731 16.24201,6.72721 18.60074,11.595123 0.85406,1.762608 1.07871,2.708814 2.01016,8.466666 0.57675,3.56526 1.24197,7.85151 1.47827,9.525 0.40652,2.878981 1.8395,12.256259 2.11257,13.824478 0.15234,0.874865 0.15302,0.874856 -2.77049,0.03693 z"
         id="path8" />
      <text
         xml:space="preserve"
         style="font-size:71.7525px;font-family:'Loveland Personal Use';-inkscape-font-specification:'Loveland Personal Use';font-variant-ligatures:discretionary-ligatures;fill:none;fill-rule:evenodd;stroke:#000000;stroke-width:0.0999997;stroke-dasharray:none;paint-order:stroke markers fill"
         x="-95.329208"
         y="133.34897"
         id="text8"><tspan
           sodipodi:role="line"
           id="tspan8"
           style="font-style:normal;font-variant:normal;font-weight:normal;font-stretch:normal;font-size:71.7525px;font-family:Anurati;-inkscape-font-specification:'Anurati, Normal';font-variant-ligatures:discretionary-ligatures;font-variant-caps:normal;font-variant-numeric:normal;font-variant-east-asian:normal;stroke-width:0.0999997;stroke-dasharray:none"
           x="-95.329208"
           y="133.34897">   EGUREYE</tspan></text>
      <text
         xml:space="preserve"
         style="font-style:normal;font-variant:normal;font-weight:normal;font-stretch:normal;font-size:75.6025px;font-family:Anurati;-inkscape-font-specification:'Anurati, Normal';font-variant-ligatures:discretionary-ligatures;font-variant-caps:normal;font-variant-numeric:normal;font-variant-east-asian:normal;fill:none;fill-rule:evenodd;stroke:#000000;stroke-width:0.105898;stroke-dasharray:none;paint-order:stroke markers fill"
         x="1.110379"
         y="150.52893"
         id="text9"
         transform="rotate(44.12361)"><tspan
           sodipodi:role="line"
           id="tspan9"
           style="stroke-width:0.105898;stroke-dasharray:none"
           x="1.110379"
           y="150.52893">S</tspan></text>
    </g>
  </g>
</svg>
